<svg xmlns="http://www.w3.org/2000/svg" viewBox="0 0 128 128" width="128" height="128" role="img" aria-label="From Light to Meaning">
  <defs>
    <linearGradient id="bg8" x1="0" y1="0" x2="1" y2="1">
      <stop offset="0%" stop-color="#06b6d4"/>
      <stop offset="100%" stop-color="#0ea5a4"/>
    </linearGradient>
    <linearGradient id="accent8" x1="0" y1="0" x2="1" y2="1">
      <stop offset="0%" stop-color="#fb923c"/>
      <stop offset="100%" stop-color="#f59e0b"/>
    </linearGradient>
  </defs>
  <rect rx="20" ry="20" x="6" y="6" width="116" height="116" fill="url(#bg8)"/>

  <!-- Pixel frame -->
  <rect x="26" y="26" width="76" height="76" rx="10" fill="#ecfeff" opacity="0.95"/>
  <rect x="26" y="26" width="76" height="76" rx="10" fill="none" stroke="#0ea5a4" stroke-width="2" opacity="0.6"/>

  <!-- Pixelated decoration -->
  <g fill="url(#accent8)">
    <rect x="26" y="26" width="10" height="10"/>
    <rect x="92" y="92" width="10" height="10"/>
    <rect x="92" y="26" width="10" height="10"/>
    <rect x="26" y="92" width="10" height="10"/>
  </g>

  <!-- Eye inside -->
  <path d="M38 64c8-10 22-16 26-16s18 6 26 16c-8 10-22 16-26 16s-18-6-26-16z" fill="#0ea5a4" opacity="0.8"/>
  <circle cx="64" cy="64" r="9" fill="#0f172a" opacity="0.6"/>
  <circle cx="67" cy="61" r="3" fill="#ecfeff"/>
</svg>






