<svg xmlns="http://www.w3.org/2000/svg" viewBox="0 0 128 128" width="128" height="128" role="img" aria-label="Introduction to Vision">
  <defs>
    <linearGradient id="bg2" x1="0" y1="0" x2="1" y2="1">
      <stop offset="0%" stop-color="#06b6d4"/>
      <stop offset="100%" stop-color="#0ea5a4"/>
    </linearGradient>
    <linearGradient id="gear" x1="0" y1="0" x2="1" y2="1">
      <stop offset="0%" stop-color="#fb923c"/>
      <stop offset="100%" stop-color="#f59e0b"/>
    </linearGradient>
  </defs>
  <rect rx="20" ry="20" x="6" y="6" width="116" height="116" fill="url(#bg2)"/>

  <!-- Eye -->
  <path d="M20 64c10-18 30-28 44-28s34 10 44 28c-10 18-30 28-44 28S30 82 20 64z" fill="#ecfeff" opacity="0.9"/>
  <circle cx="64" cy="64" r="14" fill="#0ea5a4" stroke="#0b7285" stroke-width="2"/>
  <circle cx="64" cy="64" r="6" fill="#0f172a"/>

  <!-- Gear/brain on right side of eye -->
  <g transform="translate(86,44)">
    <circle cx="12" cy="12" r="10" fill="url(#gear)"/>
    <g fill="#1f2937">
      <rect x="11" y="0" width="2" height="5" rx="1"/>
      <rect x="11" y="19" width="2" height="5" rx="1"/>
      <rect x="0" y="11" width="5" height="2" rx="1"/>
      <rect x="19" y="11" width="5" height="2" rx="1"/>
      <rect x="3" y="3" width="4" height="2" rx="1" transform="rotate(45 5 4)"/>
      <rect x="17" y="17" width="4" height="2" rx="1" transform="rotate(45 19 18)"/>
      <rect x="17" y="3" width="4" height="2" rx="1" transform="rotate(-45 19 4)"/>
      <rect x="3" y="17" width="4" height="2" rx="1" transform="rotate(-45 5 18)"/>
    </g>
  </g>
</svg>






